<svg width="48" height="48" viewBox="0 0 48 48" fill="none" xmlns="http://www.w3.org/2000/svg">
<rect width="48" height="25.284" fill="white"/>
<path d="M32.3363 10.8326C33.1201 10.9762 33.9129 11.0854 34.6867 11.273C40.552 12.6674 44.9371 17.5162 45.6127 23.334C46.048 26.9929 44.9894 30.6717 42.6628 33.5847C40.3363 36.4977 36.9262 38.4139 33.161 38.9243C32.5462 39.0058 31.9258 39.0418 31.3053 39.0317C30.9225 39.0317 30.7143 39.1436 30.5243 39.466C28.9313 42.1736 27.3193 44.8715 25.7127 47.5694C25.6454 47.6821 25.5754 47.7922 25.4472 48.0001V34.6559H25.9118C27.6981 34.6559 29.4863 34.6559 31.2762 34.6559C36.1723 34.6488 40.5347 30.879 41.0839 26.1816C41.7067 20.8474 38.0835 16.2065 32.6082 15.3406C32.1296 15.2687 31.646 15.2328 31.1616 15.2332C29.2705 15.2217 27.3793 15.2288 25.4336 15.2288V10.8326H32.3363Z" fill="#E2504B"/>
<path d="M22.1577 10.8326V15.2288H16.457C11.3008 15.2288 6.87113 19.0973 6.43652 23.9778C5.98192 29.0724 9.46602 33.5619 14.604 34.4832C15.199 34.5882 15.8022 34.6433 16.4069 34.6479C18.2981 34.6691 20.1893 34.6558 22.1204 34.6558V38.9833C22.0986 39.0026 22.0877 39.022 22.0768 39.0211C19.2228 38.9692 16.3488 39.3004 13.5166 38.7683C7.47666 37.6339 2.74876 32.7225 1.9732 26.8052C0.978519 19.2523 6.18467 12.3793 13.9166 11.0388C14.3603 10.9621 14.8067 10.9013 15.2513 10.8326H22.1577Z" fill="#E2504B"/>
</svg>
