<svg width="18" height="18" viewBox="0 0 18 18" fill="none" xmlns="http://www.w3.org/2000/svg">
<path d="M3 3.5H15C15.2652 3.5 15.5195 3.60543 15.707 3.79297C15.8946 3.98051 16 4.23478 16 4.5V13.5C16 13.7652 15.8946 14.0195 15.707 14.207C15.5195 14.3946 15.2652 14.5 15 14.5H3C2.73478 14.5 2.48051 14.3946 2.29297 14.207C2.10543 14.0195 2 13.7652 2 13.5V4.5L2.00488 4.40137C2.02757 4.17237 2.12883 3.95711 2.29297 3.79297C2.48051 3.60543 2.73478 3.5 3 3.5Z" stroke="white"/>
<path d="M7.7536 6.49007C7.35905 6.17223 6.87408 5.99983 6.375 6C5.77826 6 5.20597 6.24653 4.78401 6.68537C4.36205 7.12421 4.125 7.71939 4.125 8.34V9.9C4.12429 10.4701 4.32375 11.0209 4.68592 11.449C5.04809 11.877 5.54806 12.1527 6.09192 12.2245C6.63578 12.2962 7.18611 12.159 7.63955 11.8385C8.09299 11.5181 8.41835 11.0365 8.5545 10.4842C8.57932 10.3849 8.58505 10.2815 8.57137 10.1799C8.55769 10.0783 8.52487 9.98047 8.47479 9.89207C8.4247 9.80368 8.35834 9.72642 8.27951 9.66474C8.20067 9.60305 8.11091 9.55815 8.01536 9.5326C7.91981 9.50706 7.82036 9.50136 7.72269 9.51586C7.62503 9.53035 7.53107 9.56473 7.4462 9.61705C7.36133 9.66936 7.28722 9.73858 7.22812 9.82073C7.16901 9.90287 7.12607 9.99634 7.10175 10.0958L7.07625 10.1777C7.014 10.3484 6.89614 10.491 6.7432 10.5806C6.59026 10.6702 6.41194 10.7012 6.23929 10.6682C6.06665 10.6351 5.91061 10.5402 5.79836 10.3998C5.68611 10.2594 5.62476 10.0826 5.625 9.9V8.34C5.62428 8.14968 5.69048 7.96565 5.81115 7.82257C5.93182 7.67949 6.09863 7.58723 6.28016 7.56316C6.46169 7.5391 6.64542 7.58489 6.79674 7.69191C6.94807 7.79893 7.05655 7.9598 7.10175 8.14422L7.128 8.23158C7.19595 8.4187 7.33042 8.57152 7.50363 8.65846C7.67684 8.7454 7.87554 8.75982 8.05868 8.69873C8.24181 8.63765 8.39539 8.50573 8.48767 8.33024C8.57994 8.15475 8.60387 7.9491 8.5545 7.75578C8.4299 7.25318 8.14816 6.80792 7.7536 6.49007Z" fill="white"/>
<path d="M13.0036 6.49007C12.609 6.17223 12.1241 5.99983 11.625 6C11.0283 6 10.456 6.24653 10.034 6.68537C9.61205 7.12421 9.375 7.71939 9.375 8.34V9.9L9.3795 10.0373C9.41087 10.5942 9.63252 11.1211 10.0045 11.5231C10.3765 11.925 10.8743 12.1755 11.4082 12.2295C11.9421 12.2834 12.4769 12.1372 12.9163 11.8172C13.3557 11.4972 13.6707 11.0244 13.8045 10.4842C13.8293 10.3849 13.835 10.2815 13.8214 10.1799C13.8077 10.0783 13.7749 9.98047 13.7248 9.89207C13.6747 9.80368 13.6083 9.72642 13.5295 9.66474C13.4507 9.60305 13.3609 9.55815 13.2654 9.5326C13.1698 9.50706 13.0704 9.50136 12.9727 9.51586C12.875 9.53035 12.7811 9.56473 12.6962 9.61705C12.6113 9.66936 12.5372 9.73858 12.4781 9.82073C12.419 9.90287 12.3761 9.99634 12.3518 10.0958L12.3263 10.1777C12.264 10.3484 12.1461 10.491 11.9932 10.5806C11.8403 10.6702 11.6619 10.7012 11.4893 10.6682C11.3166 10.6351 11.1606 10.5402 11.0484 10.3998C10.9361 10.2594 10.8748 10.0826 10.875 9.9V8.34L10.8803 8.24952C10.9011 8.06909 10.9818 7.90187 11.1084 7.77668C11.2351 7.65149 11.3998 7.57616 11.5741 7.56369C11.7484 7.55121 11.9215 7.60237 12.0634 7.70834C12.2054 7.81431 12.3073 7.96846 12.3518 8.14422L12.378 8.23158C12.446 8.4187 12.5804 8.57152 12.7536 8.65846C12.9268 8.7454 13.1255 8.75982 13.3087 8.69873C13.4918 8.63765 13.6454 8.50573 13.7377 8.33024C13.8299 8.15475 13.8539 7.9491 13.8045 7.75578C13.6799 7.25318 13.3982 6.80792 13.0036 6.49007Z" fill="white"/>
</svg>
