<svg width="24" height="24" viewBox="0 0 24 24" fill="none" xmlns="http://www.w3.org/2000/svg">
<path fill-rule="evenodd" clip-rule="evenodd" d="M15 5.5C15 6.05228 15.4477 6.5 16 6.5C16.5523 6.5 17 6.05228 17 5.5C17 4.94772 16.5523 4.5 16 4.5C15.4477 4.5 15 4.94772 15 5.5ZM13.6145 6.25C13.933 7.26428 14.8806 8 16 8C17.1194 8 18.067 7.26429 18.3855 6.25003L20.2436 6.25005C20.6579 6.25005 20.9936 5.91427 20.9937 5.50005C20.9937 5.08584 20.6579 4.75005 20.2437 4.75005L18.3856 4.75003C18.067 3.73574 17.1194 3 16 3C14.8806 3 13.933 3.73572 13.6144 4.75L3.75638 4.75005C3.34217 4.75005 3.00638 5.08583 3.00639 5.50005C3.00639 5.91426 3.34217 6.25005 3.75639 6.25005L13.6145 6.25ZM8 13C8.55228 13 9 12.5523 9 12C9 11.4477 8.55228 11 8 11C7.44772 11 7 11.4477 7 12C7 12.5523 7.44772 13 8 13ZM8 14.5C9.11941 14.5 10.067 13.7643 10.3855 12.75L20.2436 12.75C20.6578 12.75 20.9936 12.4143 20.9936 12C20.9936 11.5858 20.6578 11.25 20.2436 11.25L10.3856 11.25C10.067 10.2357 9.11941 9.5 8 9.5C6.88058 9.5 5.933 10.2357 5.61444 11.25L3.75634 11.25C3.34213 11.25 3.00634 11.5858 3.00635 12.0001C3.00635 12.4143 3.34214 12.75 3.75636 12.75L5.61446 12.75C5.93303 13.7643 6.8806 14.5 8 14.5ZM16 16C14.8806 16 13.933 16.7357 13.6144 17.75L3.75638 17.75C3.34217 17.75 3.00638 18.0858 3.00639 18.5C3.00639 18.9143 3.34217 19.25 3.75639 19.25L13.6145 19.25C13.933 20.2643 14.8806 21 16 21C17.1194 21 18.067 20.2643 18.3855 19.25L20.2436 19.25C20.6579 19.25 20.9936 18.9143 20.9937 18.5001C20.9937 18.0858 20.6579 17.75 20.2437 17.75L18.3856 17.75C18.067 16.7357 17.1194 16 16 16ZM16 19.5C15.4477 19.5 15 19.0523 15 18.5C15 17.9477 15.4477 17.5 16 17.5C16.5523 17.5 17 17.9477 17 18.5C17 19.0523 16.5523 19.5 16 19.5Z" fill="#1D1919"/>
</svg>
