<svg width="24" height="24" viewBox="0 0 24 24" fill="none" xmlns="http://www.w3.org/2000/svg">
<path d="M14 12C14 13.1046 13.1046 14 12 14C10.8954 14 10 13.1046 10 12C10 10.8954 10.8954 10 12 10C13.1046 10 14 10.8954 14 12Z" fill="white"/>
<path fill-rule="evenodd" clip-rule="evenodd" d="M6.03034 4.96967C6.32324 5.26256 6.32324 5.73744 6.03034 6.03033C2.73337 9.3273 2.73338 14.6727 6.03034 17.9697C6.32324 18.2626 6.32324 18.7375 6.03034 19.0304C5.73745 19.3233 5.26258 19.3233 4.96968 19.0304C1.08693 15.1476 1.08693 8.85243 4.96968 4.96967C5.26258 4.67678 5.73745 4.67678 6.03034 4.96967ZM17.9697 4.96967C18.2626 4.67678 18.7375 4.67678 19.0304 4.96967C22.9131 8.85243 22.9131 15.1476 19.0304 19.0304C18.7375 19.3233 18.2626 19.3233 17.9697 19.0304C17.6768 18.7375 17.6768 18.2626 17.9697 17.9697C21.2667 14.6727 21.2667 9.3273 17.9697 6.03033C17.6768 5.73744 17.6768 5.26256 17.9697 4.96967Z" fill="white"/>
<path fill-rule="evenodd" clip-rule="evenodd" d="M8.55611 7.72415C8.84026 8.02554 8.82628 8.50021 8.5249 8.78435C6.63558 10.5656 6.63558 13.4343 8.5249 15.2156C8.82628 15.4997 8.84026 15.9744 8.55611 16.2758C8.27196 16.5772 7.79729 16.5911 7.49591 16.307C4.97858 13.9336 4.97858 10.0663 7.49591 7.69294C7.79729 7.4088 8.27196 7.42277 8.55611 7.72415ZM15.4436 7.72415C15.7278 7.42277 16.2025 7.4088 16.5038 7.69294C19.0212 10.0663 19.0212 13.9336 16.5038 16.307C16.2025 16.5911 15.7278 16.5772 15.4436 16.2758C15.1595 15.9744 15.1735 15.4997 15.4749 15.2156C17.3642 13.4343 17.3642 10.5656 15.4749 8.78435C15.1735 8.50021 15.1595 8.02554 15.4436 7.72415Z" fill="white"/>
</svg>
