<svg width="24" height="24" viewBox="0 0 24 24" fill="none" xmlns="http://www.w3.org/2000/svg">
<path d="M13.4999 12C13.4999 11.1716 12.8284 10.5 11.9999 10.5C11.1715 10.5 10.4999 11.1716 10.4999 12C10.4999 12.8284 11.1715 13.5 11.9999 13.5C12.8284 13.5 13.4999 12.8284 13.4999 12Z" fill="#1D1919"/>
<path d="M13.4999 18C13.4999 17.1716 12.8284 16.5 11.9999 16.5C11.1715 16.5 10.4999 17.1716 10.4999 18C10.4999 18.8284 11.1715 19.5 11.9999 19.5C12.8284 19.5 13.4999 18.8284 13.4999 18Z" fill="#1D1919"/>
<path d="M13.4999 6C13.4999 5.17157 12.8284 4.5 11.9999 4.5C11.1715 4.5 10.4999 5.17157 10.4999 6C10.4999 6.82843 11.1715 7.5 11.9999 7.5C12.8284 7.5 13.4999 6.82843 13.4999 6Z" fill="#1D1919"/>
</svg>
