<svg width="18" height="18" viewBox="0 0 18 18" fill="none" xmlns="http://www.w3.org/2000/svg">
<path fill-rule="evenodd" clip-rule="evenodd" d="M8.43746 3.58731C8.43746 3.39957 8.21048 3.30552 8.07769 3.4383L5.86823 5.64777C5.64856 5.86744 5.2924 5.86744 5.07273 5.64777C4.85306 5.4281 4.85306 5.07194 5.07273 4.85227L7.28221 2.6428C8.1237 1.80136 9.56246 2.39729 9.56246 3.58731V9.00002C9.56246 9.31068 9.31062 9.56252 8.99996 9.56252C8.6893 9.56252 8.43746 9.31068 8.43746 9.00002V3.58731ZM13.5231 3.6813C13.7428 3.46163 14.099 3.46163 14.3186 3.6813C17.256 6.6187 17.256 11.3812 14.3186 14.3186C14.099 14.5382 13.7428 14.5382 13.5231 14.3186C13.3035 14.0989 13.3035 13.7427 13.5231 13.5231C16.0212 11.025 16.0212 6.97486 13.5231 4.47679C13.3035 4.25712 13.3035 3.90097 13.5231 3.6813ZM11.336 5.86841C11.5557 5.64874 11.9118 5.64874 12.1315 5.86841C13.861 7.59793 13.861 10.402 12.1315 12.1315C11.9118 12.3512 11.5557 12.3512 11.336 12.1315C11.1163 11.9119 11.1163 11.5557 11.336 11.336C12.6262 10.0459 12.6262 7.95408 11.336 6.6639C11.1163 6.44423 11.1163 6.08808 11.336 5.86841ZM2.81401 7.24278C2.69765 7.24278 2.60327 7.33712 2.60327 7.45357V10.5465C2.60327 10.6629 2.69766 10.7573 2.81401 10.7573H4.04022C4.1894 10.7573 4.33247 10.8165 4.43796 10.922L8.07767 14.5617C8.07768 14.5617 8.07766 14.5617 8.07767 14.5617C8.21053 14.6945 8.43746 14.6004 8.43746 14.4128V12C8.43746 11.6894 8.6893 11.4375 8.99996 11.4375C9.31062 11.4375 9.56246 11.6894 9.56246 12V14.4128C9.56246 15.6029 8.12367 16.1986 7.28224 15.3573L3.80722 11.8823H2.81401C2.07628 11.8823 1.47827 11.2842 1.47827 10.5465V7.45357C1.47827 6.71584 2.07629 6.11778 2.81401 6.11778H3.74997C4.06063 6.11778 4.31247 6.36962 4.31247 6.68028C4.31247 6.99094 4.06063 7.24278 3.74997 7.24278H2.81401Z" fill="white"/>
<path fill-rule="evenodd" clip-rule="evenodd" d="M2.22725 2.22725C2.44692 2.00758 2.80308 2.00758 3.02275 2.22725L15.3977 14.6023C15.6174 14.8219 15.6174 15.1781 15.3977 15.3977C15.1781 15.6174 14.8219 15.6174 14.6023 15.3977L2.22725 3.02275C2.00758 2.80308 2.00758 2.44692 2.22725 2.22725Z" fill="white"/>
</svg>
