<svg width="20" height="20" viewBox="0 0 20 20" fill="none" xmlns="http://www.w3.org/2000/svg">
<path d="M12.4075 10.7412C13.1856 10.7412 13.9562 10.8937 14.675 11.1914C15.394 11.4892 16.0476 11.9263 16.5979 12.4766C17.1481 13.0268 17.5843 13.6805 17.8821 14.3994C18.0732 14.8609 18.2049 15.3435 18.2747 15.8359C18.3392 16.2916 17.9604 16.6669 17.5002 16.667H7.3147C6.85455 16.6669 6.47578 16.2916 6.54028 15.8359C6.61 15.3436 6.74174 14.8609 6.93286 14.3994C7.23064 13.6805 7.66685 13.0268 8.21704 12.4766C8.76731 11.9263 9.42093 11.4892 10.1399 11.1914C10.8588 10.8937 11.6294 10.7412 12.4075 10.7412ZM12.4075 11.9912C11.7935 11.9912 11.1856 12.1118 10.6184 12.3467C10.0511 12.5817 9.53503 12.9262 9.10083 13.3604C8.66675 13.7945 8.32211 14.3098 8.08716 14.877C8.01417 15.0532 7.95239 15.234 7.90161 15.417H16.9133C16.8626 15.234 16.8008 15.0532 16.7278 14.877C16.4928 14.3098 16.1482 13.7945 15.7141 13.3604C15.2799 12.9262 14.7638 12.5817 14.1965 12.3467C13.6293 12.1118 13.0214 11.9912 12.4075 11.9912ZM12.4075 3.33301C14.2484 3.33301 15.7405 4.82604 15.7405 6.66699C15.7403 8.50779 14.2483 10 12.4075 10C10.5667 9.99997 9.07464 8.50777 9.07446 6.66699C9.07446 4.82606 10.5665 3.33304 12.4075 3.33301ZM12.4075 4.58301C11.2569 4.58304 10.3245 5.51642 10.3245 6.66699C10.3246 7.81742 11.257 8.74997 12.4075 8.75C13.558 8.75 14.4903 7.81744 14.4905 6.66699C14.4905 5.5164 13.5581 4.58301 12.4075 4.58301Z" fill="white"/>
<path d="M6.11157 10.1157C6.70409 10.1158 7.29071 10.2328 7.83813 10.4595C8.15698 10.5915 8.30897 10.957 8.177 11.2759C8.04494 11.5947 7.67944 11.7457 7.3606 11.6138C6.96475 11.4498 6.54003 11.3658 6.11157 11.3657C5.68295 11.3657 5.25757 11.4497 4.86157 11.6138C4.46568 11.7778 4.10599 12.0188 3.80298 12.3218C3.50003 12.6248 3.25995 12.9846 3.09595 13.3804C3.01243 13.582 2.94908 13.7912 2.90747 14.0044H5.3186C5.66369 14.0044 5.94346 14.2843 5.9436 14.6294C5.9436 14.9746 5.66378 15.2544 5.3186 15.2544H2.43091C1.98017 15.2544 1.57736 14.8829 1.60376 14.3882C1.63112 13.878 1.74471 13.3749 1.94067 12.9019C2.16749 12.3544 2.50017 11.857 2.91919 11.438C3.33834 11.0188 3.83638 10.6863 4.38403 10.4595C4.93161 10.2327 5.51889 10.1157 6.11157 10.1157ZM6.1106 4.50537C7.49123 4.50537 8.61046 5.62477 8.6106 7.00537C8.6106 8.38608 7.49131 9.50537 6.1106 9.50537C4.73007 9.50515 3.6106 8.38595 3.6106 7.00537C3.61073 5.62491 4.73015 4.50559 6.1106 4.50537ZM6.1106 5.75537C5.42051 5.75559 4.86073 6.31526 4.8606 7.00537C4.8606 7.69559 5.42043 8.25515 6.1106 8.25537C6.80095 8.25537 7.3606 7.69573 7.3606 7.00537C7.36046 6.31513 6.80087 5.75537 6.1106 5.75537Z" fill="white"/>
</svg>
