<svg width="25" height="24" viewBox="0 0 25 24" fill="none" xmlns="http://www.w3.org/2000/svg">
<mask id="mask0_15_1985" style="mask-type:alpha" maskUnits="userSpaceOnUse" x="0" y="0" width="25" height="24">
<rect x="0.666748" width="24" height="24" fill="#D9D9D9"/>
</mask>
<g mask="url(#mask0_15_1985)">
<path d="M5.00415 8.77893C5.18365 8.77893 5.35718 8.84806 5.48267 8.97229L8.25806 11.7184C8.51294 11.9706 8.50079 12.3722 8.23267 12.611C7.96834 12.8463 7.55318 12.836 7.302 12.5875L5.66626 10.9684V16.6031C5.66633 17.8331 6.73425 18.8444 8.05981 18.8444H20.9182L21.05 18.8571C21.3489 18.9145 21.5803 19.1638 21.5803 19.4723C21.5802 19.8247 21.2777 20.1002 20.9182 20.1002H8.05981C6.01601 20.1002 4.34211 18.5372 4.34204 16.6031V10.9694L2.70728 12.5875C2.57667 12.7169 2.40176 12.7809 2.22876 12.7809C2.06725 12.7808 1.90384 12.7253 1.77563 12.611C1.5077 12.3722 1.49664 11.9716 1.75122 11.7194L4.52661 8.97229C4.65202 8.84814 4.82477 8.77902 5.00415 8.77893Z" fill="#1D1919" stroke="#1D1919" stroke-width="0.2"/>
<path d="M20.9675 15.2195C20.788 15.2195 20.6145 15.1504 20.489 15.0261L17.7136 12.28C17.4587 12.0278 17.4709 11.6262 17.739 11.3875C18.0033 11.1521 18.4185 11.1624 18.6697 11.4109L20.3054 13.03V7.39526C20.3053 6.1653 19.2374 5.15405 17.9119 5.15405H5.05347L4.92163 5.14136C4.62278 5.0839 4.39136 4.83462 4.39136 4.52612C4.39146 4.17369 4.69395 3.89819 5.05347 3.89819H17.9119C19.9557 3.89819 21.6296 5.46122 21.6296 7.39526V13.0291L23.2644 11.4109C23.395 11.2815 23.5699 11.2175 23.7429 11.2175C23.9044 11.2176 24.0678 11.2731 24.196 11.3875C24.464 11.6262 24.475 12.0268 24.2205 12.2791L21.4451 15.0261C21.3197 15.1503 21.1469 15.2194 20.9675 15.2195Z" fill="#1D1919" stroke="#1D1919" stroke-width="0.2"/>
</g>
</svg>
