<svg width="24" height="24" viewBox="0 0 24 24" fill="none" xmlns="http://www.w3.org/2000/svg">
<path fill-rule="evenodd" clip-rule="evenodd" d="M11.4258 6.00005C11.4258 4.57792 12.5786 3.42505 14.0008 3.42505H18.0008C18.8706 3.42505 19.5758 4.1302 19.5758 5.00005V15C19.5758 15.8699 18.8706 16.575 18.0008 16.575H14.0008C12.5786 16.575 11.4258 15.4222 11.4258 14V6.00005ZM14.0008 4.57505C13.2138 4.57505 12.5758 5.21304 12.5758 6.00005V14C12.5758 14.7871 13.2138 15.425 14.0008 15.425H18.0008C18.2355 15.425 18.4258 15.2348 18.4258 15V5.00005C18.4258 4.76533 18.2355 4.57505 18.0008 4.57505H14.0008Z" fill="#737171"/>
<path fill-rule="evenodd" clip-rule="evenodd" d="M4.42578 5.00005C4.42578 4.1302 5.13093 3.42505 6.00078 3.42505H10.0008C11.4229 3.42505 12.5758 4.57792 12.5758 6.00005V14C12.5758 15.4222 11.4229 16.575 10.0008 16.575H6.00078C5.13093 16.575 4.42578 15.8699 4.42578 15V5.00005ZM6.00078 4.57505C5.76606 4.57505 5.57578 4.76533 5.57578 5.00005V15C5.57578 15.2348 5.76606 15.425 6.00078 15.425H10.0008C10.7878 15.425 11.4258 14.7871 11.4258 14V6.00005C11.4258 5.21304 10.7878 4.57505 10.0008 4.57505H6.00078Z" fill="#737171"/>
<path fill-rule="evenodd" clip-rule="evenodd" d="M4.00078 6.57505C3.76606 6.57505 3.57578 6.76533 3.57578 7.00005V17C3.57578 17.2348 3.76606 17.4251 4.00078 17.4251H9.66745C10.0082 17.4251 10.3398 17.5356 10.6124 17.7401L11.1458 18.1401C11.6524 18.5201 12.3491 18.5201 12.8558 18.1401L13.3891 17.7401C13.6617 17.5356 13.9933 17.4251 14.3341 17.4251H20.0008C20.2355 17.4251 20.4258 17.2348 20.4258 17V7.00005C20.4258 6.76533 20.2355 6.57505 20.0008 6.57505H19.0008V5.42505H20.0008C20.8706 5.42505 21.5758 6.1302 21.5758 7.00005V17C21.5758 17.8699 20.8706 18.5751 20.0008 18.5751H14.3341C14.2422 18.5751 14.1527 18.6049 14.0791 18.6601L13.5458 19.0601C12.6302 19.7467 11.3713 19.7467 10.4558 19.0601L9.92245 18.6601C9.84888 18.6049 9.75941 18.5751 9.66745 18.5751H4.00078C3.13093 18.5751 2.42578 17.8699 2.42578 17V7.00005C2.42578 6.1302 3.13093 5.42505 4.00078 5.42505H5.00078V6.57505H4.00078Z" fill="#737171"/>
<path fill-rule="evenodd" clip-rule="evenodd" d="M6.42578 6.99993C6.42578 6.68236 6.68322 6.42493 7.00078 6.42493H10.0008C10.3183 6.42493 10.5758 6.68236 10.5758 6.99993C10.5758 7.31749 10.3183 7.57493 10.0008 7.57493H7.00078C6.68322 7.57493 6.42578 7.31749 6.42578 6.99993Z" fill="#737171"/>
<path fill-rule="evenodd" clip-rule="evenodd" d="M6.42578 10C6.42578 9.68249 6.68322 9.42505 7.00078 9.42505H10.0008C10.3183 9.42505 10.5758 9.68249 10.5758 10C10.5758 10.3176 10.3183 10.575 10.0008 10.575H7.00078C6.68322 10.575 6.42578 10.3176 6.42578 10Z" fill="#737171"/>
<path fill-rule="evenodd" clip-rule="evenodd" d="M6.42578 12.9999C6.42578 12.6824 6.68322 12.4249 7.00078 12.4249H10.0008C10.3183 12.4249 10.5758 12.6824 10.5758 12.9999C10.5758 13.3175 10.3183 13.5749 10.0008 13.5749H7.00078C6.68322 13.5749 6.42578 13.3175 6.42578 12.9999Z" fill="#737171"/>
<path fill-rule="evenodd" clip-rule="evenodd" d="M13.4258 12.9999C13.4258 12.6824 13.6832 12.4249 14.0008 12.4249H17.0008C17.3183 12.4249 17.5758 12.6824 17.5758 12.9999C17.5758 13.3175 17.3183 13.5749 17.0008 13.5749H14.0008C13.6832 13.5749 13.4258 13.3175 13.4258 12.9999Z" fill="#737171"/>
<path fill-rule="evenodd" clip-rule="evenodd" d="M13.4258 7.49993C13.4258 6.90622 13.9071 6.42493 14.5008 6.42493H16.5008C17.0945 6.42493 17.5758 6.90622 17.5758 7.49993V9.49993C17.5758 10.0936 17.0945 10.5749 16.5008 10.5749H14.5008C13.9071 10.5749 13.4258 10.0936 13.4258 9.49993V7.49993ZM14.5758 7.57493V9.42493H16.4258V7.57493H14.5758Z" fill="#737171"/>
</svg>
