<svg width="17" height="16" viewBox="0 0 17 16" fill="none" xmlns="http://www.w3.org/2000/svg">
<path d="M8.48047 1.34088C9.40078 1.34095 10.1473 2.08661 10.1475 3.0069C10.1475 3.04884 10.1447 3.0907 10.1416 3.1319C11.653 3.7037 12.75 5.04307 12.75 6.66705V10.669L14.1387 12.418C14.4335 12.7894 14.1695 13.3369 13.6953 13.337H10.2627C10.0449 14.1063 9.33901 14.67 8.5 14.67C7.66097 14.67 6.95509 14.1063 6.7373 13.337H3.16699C2.97528 13.337 2.80031 13.2273 2.7168 13.0547C2.63337 12.882 2.65611 12.6767 2.77539 12.5264L4.25 10.669V6.66705C4.25 5.05734 5.3275 3.72666 6.81836 3.14655C6.81455 3.10062 6.81348 3.05377 6.81348 3.0069C6.81365 2.08657 7.5601 1.34088 8.48047 1.34088ZM7.83398 13.337C7.98604 13.5392 8.22753 13.67 8.5 13.67C8.77226 13.67 9.01298 13.5389 9.16504 13.337H7.83398ZM8.5 3.83307C6.64808 3.83307 5.25 5.15599 5.25 6.66705V10.8428C5.25 10.9556 5.21166 11.065 5.1416 11.1534L4.20215 12.337H12.7979L11.8584 11.1534C11.7883 11.065 11.75 10.9556 11.75 10.8428V6.66705C11.75 5.156 10.3519 3.83309 8.5 3.83307ZM8.48047 2.34088C8.15517 2.34088 7.88486 2.57368 7.82617 2.8819C8.0464 2.84997 8.27158 2.83307 8.5 2.83307C8.7146 2.83307 8.92633 2.84779 9.13379 2.87604C9.07284 2.57074 8.80368 2.34094 8.48047 2.34088Z" fill="white"/>
</svg>
