<svg width="24" height="24" viewBox="0 0 24 24" fill="none" xmlns="http://www.w3.org/2000/svg">
<path d="M11.2383 3.82031C11.6836 3.42233 12.3567 3.42114 12.8027 3.81836L19.8145 10.0635C20.0648 10.2864 20.208 10.6062 20.208 10.9414V19.9951C20.208 20.0917 20.1297 20.1708 20.0332 20.1709H15.002C14.9053 20.1709 14.8272 20.0917 14.8271 19.9951L14.8252 15.5L14.8174 15.3643C14.749 14.6967 14.1855 14.1759 13.5 14.1758H10.502C9.77029 14.1759 9.17676 14.7693 9.17676 15.501V19.9951C9.17676 20.0918 9.0986 20.1709 9.00195 20.1709H4.03906C3.94241 20.1709 3.86426 20.0918 3.86426 19.9951V10.9385C3.86436 10.6042 4.00663 10.2853 4.25586 10.0625L11.2383 3.82031Z" stroke="#737171" stroke-width="1.65"/>
</svg>
