<svg width="16" height="16" viewBox="0 0 16 16" fill="none" xmlns="http://www.w3.org/2000/svg">
<path d="M9.33329 8.00002C9.33329 8.7364 8.73634 9.33335 7.99996 9.33335C7.26358 9.33335 6.66663 8.7364 6.66663 8.00002C6.66663 7.26364 7.26358 6.66669 7.99996 6.66669C8.73634 6.66669 9.33329 7.26364 9.33329 8.00002Z" fill="#E2504B"/>
<path fill-rule="evenodd" clip-rule="evenodd" d="M4.02019 3.31313C4.21545 3.5084 4.21545 3.82498 4.02019 4.02024C1.82221 6.21822 1.82221 9.78185 4.02019 11.9798C4.21545 12.1751 4.21545 12.4917 4.02019 12.6869C3.82493 12.8822 3.50834 12.8822 3.31308 12.6869C0.724578 10.0984 0.724578 5.90164 3.31308 3.31313C3.50834 3.11787 3.82493 3.11787 4.02019 3.31313ZM11.9798 3.31313C12.175 3.11787 12.4916 3.11787 12.6869 3.31313C15.2754 5.90164 15.2754 10.0984 12.6869 12.6869C12.4916 12.8822 12.175 12.8822 11.9798 12.6869C11.7845 12.4917 11.7845 12.1751 11.9798 11.9798C14.1778 9.78185 14.1778 6.21822 11.9798 4.02024C11.7845 3.82498 11.7845 3.5084 11.9798 3.31313Z" fill="#E2504B"/>
<path fill-rule="evenodd" clip-rule="evenodd" d="M5.70411 5.14944C5.89355 5.35036 5.88423 5.6668 5.68331 5.85624C4.42376 7.04375 4.42376 8.9562 5.68331 10.1437C5.88423 10.3331 5.89355 10.6496 5.70411 10.8505C5.51468 11.0514 5.19824 11.0608 4.99731 10.8713C3.31909 9.28908 3.31909 6.71087 4.99731 5.12863C5.19824 4.9392 5.51468 4.94851 5.70411 5.14944ZM10.2958 5.14944C10.4852 4.94851 10.8017 4.9392 11.0026 5.12863C12.6808 6.71087 12.6808 9.28908 11.0026 10.8713C10.8017 11.0608 10.4852 11.0514 10.2958 10.8505C10.1064 10.6496 10.1157 10.3331 10.3166 10.1437C11.5762 8.9562 11.5762 7.04375 10.3166 5.85624C10.1157 5.6668 10.1064 5.35036 10.2958 5.14944Z" fill="#E2504B"/>
</svg>
