<svg width="24" height="24" viewBox="0 0 24 24" fill="none" xmlns="http://www.w3.org/2000/svg">
<path d="M11.9688 2.01172C13.3495 2.01175 14.4688 3.13102 14.4688 4.51172C14.4688 4.5738 14.4655 4.6353 14.461 4.69629C16.729 5.55362 18.3751 7.56339 18.3751 10V16.0029L20.459 18.627C20.901 19.184 20.5041 20.0058 19.793 20.0059H14.6436C14.3175 21.1606 13.2592 22.0078 12.0001 22.0078C10.7409 22.0078 9.68263 21.1606 9.35651 20.0059H4.00006C3.71225 20.0059 3.44943 19.8402 3.32428 19.5811C3.19948 19.3221 3.2335 19.0143 3.41217 18.7891L5.62506 16.0029V10C5.62506 7.58586 7.24095 5.59112 9.47662 4.7207C9.4709 4.65179 9.46881 4.58205 9.46881 4.51172C9.46881 3.13101 10.5881 2.01172 11.9688 2.01172ZM11.0001 20.0059C11.2281 20.3101 11.5906 20.5078 12.0001 20.5078C12.4095 20.5078 12.7721 20.3102 13.0001 20.0059H11.0001ZM12.0001 5.75C9.22219 5.75 7.12506 7.7334 7.12506 10V16.2646C7.12497 16.4339 7.06721 16.5979 6.96198 16.7305L5.5528 18.5059H18.4473L17.0372 16.7305C16.9321 16.598 16.8752 16.4337 16.8751 16.2646V10C16.8751 7.73341 14.7779 5.75002 12.0001 5.75ZM11.9688 3.51172C11.4809 3.51172 11.0745 3.86106 10.9864 4.32324C11.3177 4.27506 11.6564 4.25 12.0001 4.25C12.3211 4.25 12.6379 4.27133 12.9483 4.31348C12.8563 3.85625 12.4531 3.51174 11.9688 3.51172Z" fill="#737171"/>
</svg>
