<svg width="20" height="20" viewBox="0 0 20 20" fill="none" xmlns="http://www.w3.org/2000/svg">
<path d="M9.78483 2.49927C10.1623 2.49888 10.4689 2.80447 10.4694 3.18188L10.4753 9.11743H16.4001C16.7776 9.11743 17.0837 9.42349 17.0837 9.80103C17.0835 10.1784 16.7775 10.4846 16.4001 10.4846H10.4762L10.4821 16.3987C10.4823 16.776 10.1768 17.0818 9.79948 17.0823C9.42194 17.0827 9.11527 16.7772 9.11491 16.3997L9.10905 10.4846H3.18424C2.8068 10.4846 2.5008 10.1784 2.50065 9.80103C2.50065 9.42349 2.8067 9.11743 3.18424 9.11743H9.10807L9.10221 3.18384C9.10185 2.80641 9.40744 2.49983 9.78483 2.49927Z" fill="#2F80ED"/>
</svg>
