<svg width="20" height="20" viewBox="0 0 20 20" fill="none" xmlns="http://www.w3.org/2000/svg">
<path d="M9.16748 2.5C12.8492 2.50018 15.8335 5.4852 15.8335 9.16699C15.8334 10.7827 15.2576 12.2631 14.3013 13.417L17.1089 16.2246C17.353 16.4687 17.353 16.8643 17.1089 17.1084C16.8648 17.3525 16.4692 17.3525 16.2251 17.1084L13.4175 14.3008C12.2636 15.2571 10.7832 15.8329 9.16748 15.833C5.48569 15.833 2.50066 12.8487 2.50049 9.16699C2.50049 5.48509 5.48558 2.5 9.16748 2.5ZM9.16748 3.75C6.17594 3.75 3.75049 6.17545 3.75049 9.16699C3.75066 12.1584 6.17605 14.583 9.16748 14.583C12.1588 14.5828 14.5833 12.1583 14.5835 9.16699C14.5835 6.17556 12.1589 3.75018 9.16748 3.75Z" fill="#737171"/>
</svg>
