<svg width="24" height="24" viewBox="0 0 24 24" fill="none" xmlns="http://www.w3.org/2000/svg">
<path fill-rule="evenodd" clip-rule="evenodd" d="M17.5 11C17.5 14.5899 14.5899 17.5 11 17.5C7.41015 17.5 4.5 14.5899 4.5 11C4.5 7.41015 7.41015 4.5 11 4.5C14.5899 4.5 17.5 7.41015 17.5 11ZM16.1018 17.1624C14.717 18.3101 12.9391 19 11 19C6.58172 19 3 15.4183 3 11C3 6.58172 6.58172 3 11 3C15.4183 3 19 6.58172 19 11C19 12.9391 18.3101 14.717 17.1624 16.1017L20.5304 19.4697C20.8233 19.7626 20.8233 20.2374 20.5304 20.5303C20.2375 20.8232 19.7626 20.8232 19.4697 20.5303L16.1018 17.1624Z" fill="#1D1919"/>
</svg>
