<svg width="24" height="24" viewBox="0 0 24 24" fill="none" xmlns="http://www.w3.org/2000/svg">
<path fill-rule="evenodd" clip-rule="evenodd" d="M4.3101 11.3326L3.31007 11.3325C3.03392 11.3325 2.81006 11.5564 2.81006 11.8325V12.8326V19.6674V20.6674C2.81006 20.9436 3.03392 21.1674 3.31006 21.1674H4.31006H17.0998C17.6267 21.1674 18.1767 21.0368 18.6504 20.7006C19.135 20.3566 19.4456 19.8623 19.5707 19.3201C19.6742 18.8717 19.6488 18.4288 19.5353 18.0118C19.8005 17.7192 20.0159 17.3658 20.1431 16.9468C20.3187 16.3676 20.2868 15.8011 20.1066 15.2755C20.4181 14.9123 20.6526 14.4752 20.7541 13.9549C20.8624 13.3996 20.7947 12.8722 20.6213 12.3892C20.8987 12.0035 21.0806 11.5617 21.1536 11.114C21.3302 10.0309 20.8708 8.78773 19.576 8.22509L19.29 8.10081L18.9782 8.10081L12.4852 8.10088L12.6128 5.40931C12.6794 4.00644 11.5599 2.83264 10.1555 2.83264C9.03436 2.83264 8.05504 3.59064 7.77394 4.67595L6.0499 11.3326L4.3101 11.3326ZM17.7298 17.4825C17.6647 17.5103 17.6432 17.5943 17.6873 17.6496C18.0506 18.1053 18.1859 18.5719 18.1177 18.9414C18.0387 19.3695 17.6867 19.6674 17.0998 19.6674H7.26899V12.6083L9.22603 5.05204C9.33574 4.62847 9.71794 4.33264 10.1555 4.33264C10.7036 4.33264 11.1405 4.79075 11.1145 5.33825L10.9835 8.10089L10.9372 9.0772C10.9237 9.36232 11.1512 9.60089 11.4366 9.60089L12.414 9.60088L18.9782 9.60081C19.7638 9.94217 19.846 10.7711 19.4862 11.3867C19.3375 11.6413 19.1131 11.8594 18.8316 11.9915C18.7684 12.0211 18.7458 12.1034 18.7887 12.1586C19.1331 12.6022 19.3052 13.0279 19.3054 13.4201C19.3055 13.5819 19.2763 13.7381 19.2179 13.8874C19.0736 14.2561 18.751 14.5833 18.2506 14.8526C18.1901 14.8851 18.1766 14.9671 18.223 15.0176C18.6068 15.4353 18.7653 15.8394 18.7571 16.2017C18.7543 16.3278 18.7312 16.4489 18.6904 16.5638C18.5489 16.9617 18.1944 17.2845 17.7298 17.4825ZM5.76899 12.8326V19.6674H4.31006V18.1674V14.3326V12.8326L5.76899 12.8326Z" fill="#1D1919"/>
</svg>
