<svg width="25" height="24" viewBox="0 0 25 24" fill="none" xmlns="http://www.w3.org/2000/svg">
<path fill-rule="evenodd" clip-rule="evenodd" d="M15.3335 17H5.3335C4.22893 17 3.3335 16.1046 3.3335 15V5C3.3335 3.89543 4.22893 3 5.3335 3H19.3335C20.4381 3 21.3335 3.89543 21.3335 5V21L15.3335 17ZM19.8335 18.1972L15.7877 15.5H5.3335C5.05735 15.5 4.8335 15.2761 4.8335 15V5C4.8335 4.72386 5.05735 4.5 5.3335 4.5H19.3335C19.6096 4.5 19.8335 4.72386 19.8335 5V18.1972Z" fill="#1D1919"/>
<path fill-rule="evenodd" clip-rule="evenodd" d="M16.3335 9H7.3335V7.5H16.3335V9Z" fill="#1D1919"/>
<path fill-rule="evenodd" clip-rule="evenodd" d="M16.3335 13H10.3335V11.5H16.3335V13Z" fill="#1D1919"/>
</svg>
