<svg width="24" height="24" viewBox="0 0 24 24" fill="none" xmlns="http://www.w3.org/2000/svg">
<path fill-rule="evenodd" clip-rule="evenodd" d="M13.9161 4.41872C13.3775 3.89391 12.4729 4.2755 12.4729 5.02748V8.03279C10.4565 8.0491 7.11205 8.46817 4.67582 10.8431C2.34513 13.1134 2.0504 16.0625 2.02824 18.6977C2.02438 19.1568 2.35573 19.4307 2.62511 19.5183C2.89184 19.605 3.29974 19.5787 3.5704 19.2381C4.18783 18.4611 6.73334 15.7664 12.4729 15.9702V18.9693C12.4729 19.6849 13.3032 20.0802 13.8587 19.6291L18.102 16.183L21.6624 13.2917C22.0571 12.9711 22.084 12.378 21.7198 12.0231L13.9161 4.41872ZM13.9729 6.56845L20.1499 12.5877L17.1564 15.0186L13.9729 17.604V15.3532C13.9729 14.8923 13.6111 14.5349 13.1798 14.5053C8.20649 14.164 5.18877 15.7843 3.59204 17.1037C3.74886 15.1436 4.25041 13.3514 5.72266 11.9174C7.99122 9.70592 11.3165 9.4781 13.0934 9.54101C13.5839 9.55838 13.9729 9.1633 13.9729 8.69115V6.56845Z" fill="#1D1919"/>
</svg>
