<svg width="25" height="24" viewBox="0 0 25 24" fill="none" xmlns="http://www.w3.org/2000/svg">
<mask id="mask0_63_909" style="mask-type:alpha" maskUnits="userSpaceOnUse" x="0" y="0" width="25" height="24">
<rect x="0.666626" width="24" height="24" fill="#D9D9D9"/>
</mask>
<g mask="url(#mask0_63_909)">
<path d="M5.00403 8.77893C5.18353 8.77893 5.35706 8.84806 5.48254 8.97229L8.25793 11.7184C8.51282 11.9706 8.50067 12.3722 8.23254 12.611C7.96821 12.8463 7.55306 12.836 7.30188 12.5875L5.66614 10.9684V16.6031C5.66621 17.8331 6.73413 18.8444 8.05969 18.8444H20.9181L21.0499 18.8571C21.3488 18.9145 21.5802 19.1638 21.5802 19.4723C21.5801 19.8247 21.2776 20.1002 20.9181 20.1002H8.05969C6.01589 20.1002 4.34199 18.5372 4.34192 16.6031V10.9694L2.70715 12.5875C2.57655 12.7169 2.40164 12.7809 2.22864 12.7809C2.06712 12.7808 1.90372 12.7253 1.77551 12.611C1.50758 12.3722 1.49651 11.9716 1.7511 11.7194L4.52649 8.97229C4.6519 8.84814 4.82465 8.77902 5.00403 8.77893Z" fill="#1D1919" stroke="#1D1919" stroke-width="0.2"/>
<path d="M20.9674 15.2195C20.7879 15.2195 20.6144 15.1504 20.4889 15.0261L17.7135 12.28C17.4586 12.0278 17.4708 11.6262 17.7389 11.3875C18.0032 11.1521 18.4184 11.1624 18.6696 11.4109L20.3053 13.03V7.39526C20.3052 6.1653 19.2373 5.15405 17.9117 5.15405H5.05334L4.92151 5.14136C4.62266 5.0839 4.39124 4.83462 4.39124 4.52612C4.39134 4.17369 4.69382 3.89819 5.05334 3.89819H17.9117C19.9555 3.89819 21.6294 5.46122 21.6295 7.39526V13.0291L23.2643 11.4109C23.3949 11.2815 23.5698 11.2175 23.7428 11.2175C23.9043 11.2176 24.0677 11.2731 24.1959 11.3875C24.4639 11.6262 24.4749 12.0268 24.2203 12.2791L21.4449 15.0261C21.3195 15.1503 21.1468 15.2194 20.9674 15.2195Z" fill="#1D1919" stroke="#1D1919" stroke-width="0.2"/>
</g>
</svg>
